<?xml version="1.0" encoding="UTF-8" standalone="no"?>
<svg
   version="1.1"
   id="Layer_1"
   x="0px"
   y="0px"
   width="100%"
   viewBox="0 0 128 128"
   xml:space="preserve"
   sodipodi:docname="icon.svg"
   inkscape:version="1.4.3 (0d15f75042, 2025-12-25)"
   xmlns:inkscape="http://www.inkscape.org/namespaces/inkscape"
   xmlns:sodipodi="http://sodipodi.sourceforge.net/DTD/sodipodi-0.dtd"
   xmlns="http://www.w3.org/2000/svg"
   xmlns:svg="http://www.w3.org/2000/svg"><defs
   id="defs72" /><sodipodi:namedview
   id="namedview72"
   pagecolor="#ffffff"
   bordercolor="#000000"
   borderopacity="0.25"
   inkscape:showpageshadow="2"
   inkscape:pageopacity="0.0"
   inkscape:pagecheckerboard="0"
   inkscape:deskcolor="#d1d1d1"
   inkscape:zoom="4.4009582"
   inkscape:cx="92.707083"
   inkscape:cy="58.282762"
   inkscape:window-width="1707"
   inkscape:window-height="998"
   inkscape:window-x="0"
   inkscape:window-y="0"
   inkscape:window-maximized="1"
   inkscape:current-layer="Layer_1" />

<path
   fill="#000100"
   opacity="1.000000"
   stroke="none"
   d=" M122.430305,39.802151   C125.496246,40.784977 125.325958,42.650291 123.659805,44.738083   C111.548256,59.914543 99.483803,75.129608 87.249084,90.206390   C78.989105,100.385139 70.753357,110.608032 61.990498,120.346642   C54.675606,128.476074 52.413811,128.609344 44.022762,121.910522   C32.480858,112.696304 21.220295,103.117905 10.110063,93.386299   C8.254483,91.760979 7.773048,88.566864 7.209991,86.165573   C16.419016,93.219963 25.074690,100.206444 33.738060,107.177246   C33.745754,107.161552 33.769142,107.179138 33.882984,107.424370   C34.317673,107.820526 34.638519,107.971451 35.087997,108.312927   C35.438293,108.722687 35.695251,108.886574 36.135025,109.290237   C38.200058,111.053009 40.117565,112.520676 42.226112,114.259048   C55.175537,123.722168 50.901546,124.886101 62.509758,112.326210   C62.611496,112.216133 62.616383,112.016533 62.801483,111.736374   C62.936478,111.614021 63.098129,111.287445 63.347748,111.150360   C63.785698,110.688995 63.974026,110.364708 64.423500,109.844208   C68.214729,105.485977 71.744820,101.323952 75.543198,96.976868   C77.687729,94.472366 79.563972,92.152916 81.700775,89.603798   C94.863930,73.354713 107.766533,57.335304 120.870468,41.196411   C121.524635,40.652000 121.977470,40.227074 122.430305,39.802151  z"
   id="path2" />
<path
   fill="#53971F"
   opacity="1.000000"
   stroke="none"
   d=" M33.730366,107.192932   C25.074690,100.206444 16.419016,93.219963 7.468298,86.090408   C7.110135,85.524399 7.047014,85.101440 7.255110,84.252060   C8.001926,82.870911 8.477527,81.916199 8.973734,80.975525   C8.994342,80.989571 8.965359,80.948372 9.303568,81.033478   C13.902946,84.150902 17.871109,87.769821 22.493607,90.078758   C29.517195,93.587044 36.994785,96.186424 44.016075,99.391342   C40.411861,102.138184 37.071114,104.665558 33.730366,107.192932  z"
   id="path3" />
<path
   fill="#7EBF32"
   opacity="1.000000"
   stroke="none"
   d=" M24.007015,57.999023   C31.098934,62.354118 38.190853,66.709213 45.694141,71.500504   C46.108925,75.928696 46.112343,79.920700 45.743702,83.924133   C43.252663,82.351578 41.133675,80.767578 38.975624,78.820999   C34.683411,71.671921 30.253119,65.120369 20.786709,64.655968   C20.055868,61.900932 19.553053,59.435722 19.411045,57.002975   C21.183575,57.356628 22.595295,57.677826 24.007015,57.999023  z"
   id="path4" />
<path
   fill="#C5EA44"
   opacity="1.000000"
   stroke="none"
   d=" M46.115761,83.912704   C46.112343,79.920700 46.108925,75.928696 46.055710,71.477875   C46.348663,70.554665 46.691414,70.090271 47.324249,69.262543   C47.909733,68.662506 48.003986,68.362587 47.897079,67.999458   C49.669868,65.747520 51.442657,63.495583 53.887589,61.030106   C55.368130,59.535946 56.176521,58.255325 56.984913,56.974701   C56.984913,56.974701 57.001789,57.000374 57.431282,56.998878   C59.928669,57.001759 61.996571,57.006134 63.976730,57.349945   C62.248901,60.798538 60.608814,63.907703 58.845627,67.315399   C57.788628,69.065521 56.854729,70.517105 55.882259,72.140778   C55.843689,72.312866 55.836899,72.665512 55.507950,72.756149   C54.128548,73.999321 53.078094,75.151863 51.898117,76.336166   C51.582443,76.618309 51.630096,76.836662 51.778851,77.261955   C51.390949,77.983093 51.135754,78.465256 50.686150,79.091751   C50.262833,79.474945 50.105453,79.754135 49.771492,80.258224   C48.387497,81.599434 47.251629,82.756073 46.115761,83.912704  z"
   id="path5" />
<path
   fill="#78AC2D"
   opacity="1.000000"
   stroke="none"
   d=" M83.940308,19.980103   C87.065590,15.735455 90.190872,11.490808 93.716431,7.430839   C94.497551,8.057228 94.878403,8.498940 95.488510,9.067776   C96.136620,9.447109 96.555496,9.699321 97.120041,10.195837   C97.203247,11.920691 97.140793,13.401243 97.052650,15.153513   C97.014763,15.606265 97.002548,15.787298 96.716736,16.025986   C95.970886,16.361105 95.498619,16.638571 94.727020,17.004353   C93.932571,17.708870 93.437454,18.325068 92.567978,18.943214   C89.442520,19.290144 86.691414,19.635124 83.940308,19.980103  z"
   id="path6" />
<path
   fill="#96D307"
   opacity="1.000000"
   stroke="none"
   d=" M119.117126,22.968731   C124.310097,25.349010 127.117455,29.079418 125.570084,35.412094   C123.759430,35.143742 122.336121,34.518467 120.660187,33.794434   C119.911118,33.168678 119.414658,32.641685 118.791351,31.817085   C117.437660,30.351126 116.210815,29.182775 115.134712,27.706182   C116.562675,25.921537 117.839905,24.445133 119.117126,22.968731  z"
   id="path7" />
<path
   fill="#53980A"
   opacity="1.000000"
   stroke="none"
   d=" M97.078331,14.881794   C97.140793,13.401243 97.203247,11.920691 97.186249,9.858131   C97.026627,8.594023 96.946465,7.911923 96.890968,6.981801   C96.915634,6.733778 96.947838,6.236328 96.947838,6.236328   C100.591896,8.584703 104.235962,10.933079 107.702484,13.795307   C106.017914,15.851784 104.510880,17.394407 102.713654,18.793396   C100.641754,17.393772 98.860046,16.137783 97.078331,14.881794  z"
   id="path8" />
<path
   fill="#89BA32"
   opacity="1.000000"
   stroke="none"
   d=" M83.648903,20.145245   C86.691414,19.635124 89.442520,19.290144 92.601250,18.972431   C93.008881,18.999699 93.075859,19.054499 93.173454,19.330009   C92.859444,20.755856 92.447845,21.906193 91.746964,23.092770   C90.966263,23.419668 90.474831,23.710329 89.668015,24.063030   C88.022141,25.472603 86.691650,26.820133 84.983894,28.003670   C82.718102,27.553284 80.829590,27.266893 78.941071,26.980499   C80.413208,24.757128 81.885345,22.533756 83.648903,20.145245  z"
   id="path9" />
<path
   fill="#68A908"
   opacity="1.000000"
   stroke="none"
   d=" M103.003838,18.937031   C104.510880,17.394407 106.017914,15.851784 107.801849,14.127787   C110.323982,15.416751 112.569206,16.887087 114.595924,18.697998   C112.573814,20.365622 110.770218,21.692669 108.657860,22.961166   C107.568642,22.595978 106.788177,22.289341 105.836281,21.723166   C104.791565,20.965523 103.918289,20.467419 103.035225,19.711224   C103.018234,19.281097 103.011032,19.109062 103.003838,18.937031  z"
   id="path10" />
<path
   fill="#B1E244"
   opacity="1.000000"
   stroke="none"
   d=" M19.050238,56.970512   C19.553053,59.435722 20.055868,61.900932 20.789503,64.890060   C21.020323,65.413979 21.029058,65.880836 20.764677,65.938522   C20.325651,66.041412 20.151009,66.086624 19.664185,66.118156   C18.591528,66.610657 17.831055,67.116837 16.734135,67.677719   C16.021267,67.988113 15.644850,68.243805 15.088037,68.189865   C13.943571,67.253876 12.979500,66.627510 12.015429,66.001152   C13.785636,62.753014 15.555842,59.504871 17.845398,56.144932   C18.364748,56.033131 18.777248,56.056213 18.847813,56.284096   C18.918379,56.511978 19.050238,56.970512 19.050238,56.970512  z"
   id="path11" />
<path
   fill="#AED83D"
   opacity="1.000000"
   stroke="none"
   d=" M67.166512,42.064545   C67.610939,41.476368 68.055367,40.888187 68.964752,40.522236   C70.660767,41.933521 71.891830,43.122585 73.041199,44.621967   C71.346008,47.032093 69.732513,49.131897 67.892609,50.997593   C65.821465,50.511940 63.976711,50.260399 62.024811,49.765747   C61.887077,49.348179 61.856491,49.173725 61.825905,48.999268   C62.215885,48.682690 62.605865,48.366108 63.567978,47.860649   C64.788216,46.532818 65.436333,45.393860 66.084450,44.254906   C66.103638,44.059628 66.122818,43.864346 66.424767,43.297089   C66.951340,42.686695 67.104340,42.399841 67.166512,42.064545  z"
   id="path12" />
<path
   fill="#96C335"
   opacity="1.000000"
   stroke="none"
   d=" M78.663849,27.110451   C80.829590,27.266893 82.718102,27.553284 84.835838,28.315971   C83.035599,31.524294 81.006142,34.256317 78.684341,36.806351   C77.049744,35.699200 75.707504,34.774048 74.365257,33.848892   C74.365257,33.848892 74.314041,33.427288 74.694244,33.122665   C75.379486,31.877554 75.684517,30.937059 75.989548,29.996567   C76.788582,29.077845 77.587608,28.159122 78.663849,27.110451  z"
   id="path13" />
<path
   fill="#B9E13F"
   opacity="1.000000"
   stroke="none"
   d=" M62.131958,50.008862   C63.976711,50.260399 65.821465,50.511940 67.873749,51.284760   C68.040062,52.192425 67.998840,52.578804 67.696182,53.144432   C66.311317,54.552624 65.187897,55.781570 64.064468,57.010513   C61.996571,57.006134 59.928669,57.001759 57.417885,56.991676   C58.109306,55.036011 59.243614,53.086052 60.935204,50.969551   C61.705647,50.538292 61.918800,50.273575 62.131958,50.008862  z"
   id="path14" />
<path
   fill="#A3CF39"
   opacity="1.000000"
   stroke="none"
   d=" M74.228737,34.046120   C75.707504,34.774048 77.049744,35.699200 78.672150,37.036430   C78.952316,37.448502 78.897827,37.905918 78.641129,38.109436   C76.630585,40.312515 74.876732,42.312080 73.122887,44.311646   C71.891830,43.122585 70.660767,41.933521 69.251663,40.478611   C69.198563,39.879929 69.323509,39.547100 69.993462,39.026482   C71.031441,38.036045 71.524422,37.233395 72.252289,36.262943   C72.677795,35.772392 72.868401,35.449646 73.059013,35.126896   C73.403412,34.832378 73.747818,34.537861 74.228737,34.046120  z"
   id="path15" />
<path
   fill="#7EBF08"
   opacity="1.000000"
   stroke="none"
   d=" M108.966621,23.019720   C110.770218,21.692669 112.573814,20.365622 114.736977,19.005356   C116.352905,20.106752 117.609268,21.241367 118.991379,22.672358   C117.839905,24.445133 116.562675,25.921537 114.841339,27.533630   C112.949516,27.089954 111.501801,26.510590 109.995850,25.624184   C109.613945,24.551332 109.290283,23.785528 108.966621,23.019720  z"
   id="path16" />
<path
   fill="#5D9E1E"
   opacity="1.000000"
   stroke="none"
   d=" M120.912811,33.893192   C122.336121,34.518467 123.759430,35.143742 125.481964,35.832657   C124.758629,36.990868 123.736076,38.085434 122.571915,39.491074   C121.977470,40.227074 121.524635,40.652000 120.544785,40.974243   C119.639427,40.513638 119.261086,40.155716 118.966934,39.468483   C119.671684,37.390514 120.292244,35.641853 120.912811,33.893192  z"
   id="path17" />
<path
   fill="#75AF2B"
   opacity="1.000000"
   stroke="none"
   d=" M6.970091,82.055382   C6.629404,80.282295 6.288717,78.509209 5.968038,76.263306   C5.988045,75.790489 6.217631,75.689980 6.671965,75.750671   C8.345640,75.879158 9.564981,75.946953 10.934147,76.214561   C11.297349,76.694511 11.579199,76.852005 11.850469,77.204071   C10.836063,78.663635 9.900710,79.806000 8.965359,80.948372   C8.965359,80.948372 8.994342,80.989571 8.690063,81.037941   C7.913887,81.409332 7.441989,81.732361 6.970091,82.055382  z"
   id="path18" />
<path
   fill="#8AC033"
   opacity="1.000000"
   stroke="none"
   d=" M10.784322,76.014748   C9.564981,75.946953 8.345640,75.879158 6.784036,75.465881   C6.571434,74.746620 6.701096,74.372833 6.830757,73.999054   C7.253382,73.281403 7.676007,72.563751 8.329580,71.349899   C8.995302,70.491852 9.430077,70.130005 9.966032,70.086441   C10.951299,70.954811 11.835384,71.504898 12.615849,72.347229   C12.168866,73.405350 11.825506,74.171219 11.335798,75.095306   C11.043095,75.501251 10.908051,75.754990 10.784322,76.014748  z"
   id="path19" />
<path
   fill="#9DD139"
   opacity="1.000000"
   stroke="none"
   d=" M12.719469,72.054993   C11.835384,71.504898 10.951299,70.954811 9.957863,69.891388   C9.848514,69.378059 9.758753,68.998184 9.758753,68.998184   C9.990400,68.723167 10.222049,68.448158 11.030455,68.144745   C12.430889,68.788002 13.254565,69.459663 14.049580,70.341614   C14.020919,70.551903 13.928882,70.966492 13.709240,71.125473   C13.232888,71.541298 12.976178,71.798141 12.719469,72.054993  z"
   id="path20" />
<path
   fill="#B0E241"
   opacity="1.000000"
   stroke="none"
   d=" M14.078240,70.131317   C13.254565,69.459663 12.430889,68.788002 11.284008,68.051453   C11.136044,67.419838 11.311285,66.853127 11.750978,66.143784   C12.979500,66.627510 13.943571,67.253876 14.984248,68.423340   C14.733317,69.354736 14.405779,69.743027 14.078240,70.131317  z"
   id="path21" />
<path
   fill="#B9E13F"
   opacity="1.000000"
   stroke="none"
   d=" M56.679482,57.094673   C56.176521,58.255325 55.368130,59.535946 54.209419,60.879421   C54.697422,59.699730 55.535740,58.457188 56.679482,57.094673  z"
   id="path22" />
<path
   fill="#68A628"
   opacity="1.000000"
   stroke="none"
   d=" M19.411045,57.002975   C19.050238,56.970512 18.918379,56.511978 18.885378,56.061859   C18.852377,55.611744 18.841417,55.162174 18.999378,54.946648   C19.252176,54.580322 19.347013,54.429523 19.441853,54.278721   C20.921740,55.287159 22.401627,56.295597 23.944263,57.651531   C22.595295,57.677826 21.183575,57.356628 19.411045,57.002975  z"
   id="path23" />
<path
   fill="#5DA01F"
   opacity="1.000000"
   stroke="none"
   d=" M6.928710,82.295082   C7.441989,81.732361 7.913887,81.409332 8.669456,81.023895   C8.477527,81.916199 8.001926,82.870911 7.202661,83.935516   C6.881773,83.541870 6.884551,83.038330 6.928710,82.295082  z"
   id="path24" />
<path
   fill="#A3CF39"
   opacity="1.000000"
   stroke="none"
   d=" M65.740761,44.304543   C65.436333,45.393860 64.788216,46.532818 63.806454,47.774754   C64.114227,46.703217 64.755653,45.528702 65.740761,44.304543  z"
   id="path25" />
<path
   fill="#5C9A12"
   opacity="1.000000"
   stroke="none"
   d=" M96.620010,6.146057   C96.947838,6.236328 96.915634,6.733778 96.555908,6.888533   C95.883873,7.675743 95.571571,8.308198 95.259262,8.940653   C94.878403,8.498940 94.497551,8.057228 94.039703,7.328681   C94.739204,6.713160 95.515686,6.384473 96.620010,6.146057  z"
   id="path26" />
<path
   fill="#89BA32"
   opacity="1.000000"
   stroke="none"
   d=" M75.658310,30.142323   C75.684517,30.937059 75.379486,31.877554 74.771088,32.924706   C74.754173,32.116936 75.040619,31.202507 75.658310,30.142323  z"
   id="path27" />
<path
   fill="#96C335"
   opacity="1.000000"
   stroke="none"
   d=" M72.017395,36.430744   C71.524422,37.233395 71.031441,38.036045 70.239311,38.907211   C70.285294,38.291393 70.630424,37.607059 71.275009,36.617096   C71.574478,36.311474 72.017395,36.430744 72.017395,36.430744  z"
   id="path28" />
<path
   fill="#000100"
   opacity="1.000000"
   stroke="none"
   d=" M6.580348,74.006897   C6.701096,74.372833 6.571434,74.746620 6.329702,75.405190   C6.217631,75.689980 5.988045,75.790489 5.884315,75.860718   C5.526883,75.431534 5.273181,74.932121 5.019481,74.432709   C5.456300,74.293388 5.893119,74.154060 6.580348,74.006897  z"
   id="path29" />
<path
   fill="#000100"
   opacity="1.000000"
   stroke="none"
   d=" M9.491344,69.012329   C9.758753,68.998184 9.848514,69.378059 9.856682,69.573105   C9.430077,70.130005 8.995302,70.491852 8.330532,71.031715   C8.475001,70.481979 8.849468,69.754219 9.491344,69.012329  z"
   id="path30" />
<path
   fill="#000100"
   opacity="1.000000"
   stroke="none"
   d=" M72.252289,36.262943   C72.017395,36.430744 71.574478,36.311474 71.345802,36.329102   C71.623207,35.833263 72.129280,35.319801 72.847183,34.966614   C72.868401,35.449646 72.677795,35.772392 72.252289,36.262943  z"
   id="path31" />
<path
   fill="#000100"
   opacity="1.000000"
   stroke="none"
   d=" M62.024811,49.765747   C61.918800,50.273575 61.705647,50.538292 61.232998,50.786133   C61.121082,50.208191 61.268658,49.647125 61.621067,49.042664   C61.856491,49.173725 61.887077,49.348179 62.024811,49.765747  z"
   id="path32" />
<path
   fill="#000100"
   opacity="1.000000"
   stroke="none"
   d=" M47.664608,68.006287   C48.003986,68.362587 47.909733,68.662506 47.377121,68.974098   C46.866806,68.898941 46.593697,68.748901 46.320591,68.598854   C46.691105,68.403603 47.061623,68.208359 47.664608,68.006287  z"
   id="path33" />
<path
   fill="#000100"
   opacity="1.000000"
   stroke="none"
   d=" M66.917145,42.059204   C67.104340,42.399841 66.951340,42.686695 66.474564,43.007004   C65.964912,42.837898 65.688217,42.586906 65.411530,42.335911   C65.830284,42.241894 66.249031,42.147881 66.917145,42.059204  z"
   id="path34" />
<path
   fill="#68A628"
   opacity="1.000000"
   stroke="none"
   d=" M18.208828,55.063450   C18.465548,54.760242 18.722265,54.457035 19.210419,54.216270   C19.347013,54.429523 19.252176,54.580322 18.840977,54.926090   C18.524614,55.121063 18.208828,55.063450 18.208828,55.063450  z"
   id="path35" />
<path
   fill="#A3D73B"
   opacity="1.000000"
   stroke="none"
   d=" M18.127295,55.288948   C18.208828,55.063450 18.524614,55.121063 18.683016,55.141617   C18.841417,55.162174 18.852377,55.611744 18.814812,55.833977   C18.777248,56.056213 18.364748,56.033131 18.159538,56.009178   C17.954329,55.985222 18.045761,55.514450 18.127295,55.288948  z"
   id="path36" />
<path
   fill="#65A71E"
   opacity="1.000000"
   stroke="none"
   d=" M118.882751,39.797791   C119.261086,40.155716 119.639427,40.513638 120.343445,41.093727   C107.766533,57.335304 94.863930,73.354713 81.440308,89.280502   C79.257797,89.134354 77.565758,88.855675 75.940994,89.075111   C72.252090,89.573326 68.596283,90.316566 65.124367,90.688667   C67.273582,88.899841 69.301651,87.470093 71.163589,85.849464   C77.844818,80.034164 84.469864,74.154312 91.382797,68.086609   C96.607979,63.253502 101.750244,58.811436 106.471275,53.959507   C110.842705,49.466877 114.763512,44.535797 118.882751,39.797791  z"
   id="path37" />
<path
   fill="#5DA01E"
   opacity="1.000000"
   stroke="none"
   d=" M64.927017,90.960190   C68.596283,90.316566 72.252090,89.573326 75.940994,89.075111   C77.565758,88.855675 79.257797,89.134354 81.179749,89.510178   C79.563972,92.152916 77.687729,94.472366 75.116180,96.936752   C73.274406,97.069595 72.127953,97.057487 70.589737,97.061523   C66.460991,98.044571 62.724007,99.011475 58.764008,99.749046   C57.607281,98.952759 56.673573,98.385796 55.940445,97.552567   C58.458187,95.226883 60.775349,93.167458 63.397427,91.086792   C64.110565,91.030426 64.518791,90.995308 64.927017,90.960190  z"
   id="path38" />
<path
   fill="#75B157"
   opacity="1.000000"
   stroke="none"
   d=" M63.092506,91.108032   C60.775349,93.167458 58.458187,95.226883 55.622566,97.648911   C52.715435,99.630898 50.326763,101.250275 47.598549,102.954025   C43.501839,105.023972 39.744671,107.009552 35.987503,108.995125   C35.695251,108.886574 35.438293,108.722687 34.948036,108.090187   C34.376011,107.510986 34.072578,107.345062 33.769142,107.179138   C33.769142,107.179138 33.745754,107.161552 33.738060,107.177246   C37.071114,104.665558 40.411861,102.138184 44.345894,99.338760   C47.279167,97.687302 49.619156,96.307892 52.288391,94.822372   C55.413231,93.146072 58.208824,91.575874 61.298386,90.069290   C62.092407,90.457939 62.592457,90.782990 63.092506,91.108032  z"
   id="path39" />
<path
   fill="#44861E"
   opacity="1.000000"
   stroke="none"
   d=" M62.666481,111.858734   C62.616383,112.016533 62.611496,112.216133 62.509758,112.326210   C50.901546,124.886101 55.175537,123.722168 42.518608,114.219437   C42.815205,113.883606 43.010342,113.858109 43.620789,113.856194   C47.030720,113.606735 50.025337,113.333694 53.444885,113.071533   C56.802036,112.674522 59.734257,112.266632 62.666481,111.858734  z"
   id="path40" />
<path
   fill="#62A23D"
   opacity="1.000000"
   stroke="none"
   d=" M62.801479,111.736374   C59.734257,112.266632 56.802036,112.674522 53.514229,112.727287   C57.927765,109.005249 62.812134,105.785484 67.402466,102.190285   C68.974396,100.959129 69.809662,98.787399 70.981491,97.045387   C72.127953,97.057487 73.274406,97.069595 74.847885,97.121811   C71.744820,101.323952 68.214729,105.485977 64.180283,109.989426   C63.483318,110.649719 63.290722,110.968582 63.098129,111.287445   C63.098129,111.287445 62.936478,111.614021 62.801479,111.736374  z"
   id="path41" />
<path
   fill="#4F9125"
   opacity="1.000000"
   stroke="none"
   d=" M43.205475,113.832603   C43.010342,113.858109 42.815205,113.883606 42.327572,113.948730   C40.117565,112.520676 38.200058,111.053009 36.135025,109.290237   C39.744671,107.009552 43.501839,105.023972 47.749554,103.217545   C48.822384,103.930977 49.404667,104.465256 49.759155,105.239166   C47.422729,108.263405 45.314098,111.048004 43.205475,113.832603  z"
   id="path42" />
<path
   fill="#53971F"
   opacity="1.000000"
   stroke="none"
   d=" M33.882984,107.424370   C34.072578,107.345062 34.376011,107.510986 34.819405,107.899643   C34.638519,107.971451 34.317673,107.820526 33.882984,107.424370  z"
   id="path43" />
<path
   fill="#44861E"
   opacity="1.000000"
   stroke="none"
   d=" M63.347748,111.150360   C63.290722,110.968582 63.483318,110.649719 63.919136,110.185638   C63.974026,110.364708 63.785698,110.688995 63.347748,111.150360  z"
   id="path44" />
<path
   fill="#5DA01F"
   opacity="1.000000"
   stroke="none"
   d=" M51.959145,94.928482   C49.619156,96.307892 47.279167,97.687302 44.609356,99.119293   C36.994785,96.186424 29.517195,93.587044 22.493607,90.078758   C17.871109,87.769821 13.902946,84.150902 9.303568,81.033478   C9.900710,79.806000 10.836063,78.663635 11.960482,76.996796   C12.342586,76.210373 12.595158,76.033363 13.157520,76.171753   C21.448910,84.523567 31.140232,89.547134 42.265945,92.010666   C45.551292,92.738129 48.731014,93.942604 51.959145,94.928482  z"
   id="path45" />
<path
   fill="#6BAE1E"
   opacity="1.000000"
   stroke="none"
   d=" M17.070583,67.623016   C17.831055,67.116837 18.591528,66.610657 19.815742,66.284271   C20.489670,66.684227 20.731077,66.861969 21.230019,67.055710   C21.456327,67.114098 21.909082,67.230339 22.017090,67.504257   C22.771692,68.162323 23.418291,68.546478 24.389015,69.032089   C29.480326,72.483551 34.247509,75.833565 39.014687,79.183578   C41.133675,80.767578 43.252663,82.351578 45.743706,83.924133   C47.251629,82.756073 48.387497,81.599434 49.868233,80.619194   C52.737278,84.565041 56.356003,82.680527 59.608459,82.585487   C63.416386,82.474205 67.221657,82.271965 70.793335,82.333786   C67.684799,84.677177 64.811028,86.795975 61.595428,88.704895   C60.443089,88.334969 59.629826,88.022858 58.822460,88.037415   C44.133503,88.302307 31.014271,84.012108 19.339865,75.000420   C18.137442,74.072250 15.596641,74.877914 13.778205,74.578156   C14.264865,73.528481 14.650185,72.779709 15.272121,71.833015   C16.029354,70.297737 16.549969,68.960381 17.070583,67.623016  z"
   id="path46" />
<path
   fill="#AAE654"
   opacity="1.000000"
   stroke="none"
   d=" M21.909082,67.230339   C21.909082,67.230339 21.456327,67.114098 21.239975,66.776688   C21.025434,66.253128 21.027246,66.066986 21.029058,65.880836   C21.029058,65.880836 21.020323,65.413979 21.017529,65.179886   C30.253119,65.120369 34.683411,71.671921 38.975624,78.820999   C34.247509,75.833565 29.480326,72.483551 24.238470,68.792191   C23.145559,68.044014 22.527321,67.637177 21.909082,67.230339  z"
   id="path47" />
<path
   fill="#73B61C"
   opacity="1.000000"
   stroke="none"
   d=" M108.657860,22.961168   C109.290283,23.785528 109.613945,24.551332 109.769295,25.944300   C108.418488,31.158903 107.261444,35.753105 106.045387,40.331635   C105.086456,43.942039 104.054871,47.533150 102.905624,51.431156   C98.781815,56.744011 94.807945,61.758537 90.518166,66.892578   C87.839676,68.691391 85.477097,70.370682 82.731857,72.059937   C81.095886,72.450249 79.735664,72.632591 78.606255,73.242401   C69.925468,77.929550 60.685722,79.783348 50.880554,78.947418   C51.135754,78.465256 51.390949,77.983093 51.815186,77.083588   C51.984222,76.666245 52.027641,76.304405 52.027641,76.304405   C53.078094,75.151863 54.128548,73.999321 55.611038,73.123001   C58.457787,77.732307 62.076904,74.983368 64.800613,74.409515   C87.079742,69.715622 105.000015,46.714191 106.007721,21.982704   C106.788177,22.289341 107.568642,22.595978 108.657860,22.961168  z"
   id="path48" />
<path
   fill="#7EC01B"
   opacity="1.000000"
   stroke="none"
   d=" M102.713654,18.793396   C103.011032,19.109062 103.018234,19.281097 102.805984,20.034519   C102.382980,21.746830 102.148537,22.873180 101.980537,24.009357   C99.412193,41.379185 92.599213,56.383041 76.507835,65.056091   C70.227928,68.440887 62.816746,69.726791 55.920830,71.968689   C56.854729,70.517105 57.788628,69.065521 59.125896,67.182053   C60.605312,65.816765 61.681355,64.883347 63.199066,63.964756   C66.482300,63.291943 69.648773,63.188293 72.110809,61.818504   C84.711746,54.807777 93.250732,44.476562 95.956467,30.056751   C96.626366,26.486649 96.014053,22.675951 96.005379,18.732758   C96.019608,18.489664 96.046547,18.003389 96.234306,17.787766   C96.611488,17.037539 96.800911,16.502935 96.990326,15.968333   C97.002548,15.787298 97.014763,15.606265 97.052650,15.153513   C98.860046,16.137783 100.641754,17.393772 102.713654,18.793396  z"
   id="path49" />
<path
   fill="#78BA1B"
   opacity="1.000000"
   stroke="none"
   d=" M55.882256,72.140778   C62.816746,69.726791 70.227928,68.440887 76.507835,65.056091   C92.599213,56.383041 99.412193,41.379185 101.980537,24.009357   C102.148537,22.873180 102.382980,21.746830 102.815765,20.292612   C103.918289,20.467419 104.791565,20.965523 105.836281,21.723164   C105.000015,46.714191 87.079742,69.715622 64.800613,74.409515   C62.076904,74.983368 58.457787,77.732307 55.939987,73.032372   C55.836899,72.665512 55.843689,72.312866 55.882256,72.140778  z"
   id="path50" />
<path
   fill="#6FB11D"
   opacity="1.000000"
   stroke="none"
   d=" M50.686150,79.091751   C60.685722,79.783348 69.925468,77.929550 78.606255,73.242401   C79.735664,72.632591 81.095886,72.450249 82.541977,72.338760   C78.832527,75.774811 74.930305,78.941994 71.028084,82.109184   C67.221657,82.271965 63.416386,82.474205 59.608459,82.585487   C56.356003,82.680527 52.737278,84.565041 50.116352,80.434616   C50.105453,79.754135 50.262833,79.474945 50.686150,79.091751  z"
   id="path51" />
<path
   fill="#BEE366"
   opacity="1.000000"
   stroke="none"
   d=" M62.757401,63.949932   C61.681355,64.883347 60.605312,65.816765 59.248993,66.883522   C60.608814,63.907703 62.248901,60.798538 63.976730,57.349945   C65.187897,55.781570 66.311317,54.552624 67.856590,53.348381   C68.540939,53.595615 68.803452,53.818146 68.943909,54.330727   C68.471939,55.381874 68.122040,56.142975 67.514709,57.107506   C65.757324,59.523937 64.257362,61.736935 62.757401,63.949932  z"
   id="path52" />
<path
   fill="#7EC01B"
   opacity="1.000000"
   stroke="none"
   d=" M51.898117,76.336166   C52.027641,76.304405 51.984222,76.666245 51.947891,76.844612   C51.630096,76.836662 51.582443,76.618309 51.898117,76.336166  z"
   id="path53" />
<path
   fill="#89BA32"
   opacity="1.000000"
   stroke="none"
   d=" M96.046547,18.003389   C96.046547,18.003389 96.019608,18.489664 95.640076,18.740572   C94.532310,19.012487 93.804085,19.033493 93.075859,19.054499   C93.075859,19.054499 93.008881,18.999699 92.975601,18.970482   C93.437454,18.325068 93.932571,17.708870 94.914345,17.168968   C95.642105,17.475899 95.857292,17.728605 96.046547,18.003389  z"
   id="path54" />
<path
   fill="#D9E8CB"
   opacity="1.000000"
   stroke="none"
   d=" M95.488510,9.067775   C95.571571,8.308198 95.883873,7.675743 96.531235,7.136556   C96.946465,7.911923 97.026627,8.594023 97.040573,9.613828   C96.555496,9.699321 96.136620,9.447109 95.488510,9.067775  z"
   id="path55" />
<path
   fill="#85C61B"
   opacity="1.000000"
   stroke="none"
   d=" M96.234306,17.787766   C95.857292,17.728605 95.642105,17.475899 95.213676,17.080652   C95.498619,16.638571 95.970886,16.361105 96.716743,16.025986   C96.800911,16.502935 96.611488,17.037539 96.234306,17.787766  z"
   id="path56" />
<path
   fill="#78B456"
   opacity="1.000000"
   stroke="none"
   d=" M90.834076,66.773064   C94.807945,61.758537 98.781815,56.744011 103.183342,51.235115   C107.327827,45.787582 110.981926,40.785286 114.799919,35.911369   C115.936333,34.460667 117.532623,33.370213 118.918198,32.114697   C119.414658,32.641685 119.911118,33.168678 120.660187,33.794434   C120.292244,35.641853 119.671684,37.390514 118.966934,39.468483   C114.763512,44.535797 110.842705,49.466877 106.471275,53.959507   C101.750244,58.811436 96.607979,63.253502 91.315292,67.703087   C90.932106,67.278900 90.883095,67.025986 90.834076,66.773064  z"
   id="path57" />
<path
   fill="#6DB01D"
   opacity="1.000000"
   stroke="none"
   d=" M118.791351,31.817085   C117.532623,33.370213 115.936333,34.460667 114.799919,35.911369   C110.981926,40.785286 107.327827,45.787582 103.333282,50.936790   C104.054871,47.533150 105.086456,43.942039 106.045387,40.331635   C107.261444,35.753105 108.418488,31.158903 109.827530,26.251343   C111.501801,26.510590 112.949516,27.089954 114.690598,27.841873   C116.210815,29.182775 117.437660,30.351126 118.791351,31.817085  z"
   id="path58" />
<path
   fill="#85C61B"
   opacity="1.000000"
   stroke="none"
   d=" M93.173454,19.330009   C93.804085,19.033493 94.532310,19.012487 95.625839,18.983665   C96.014053,22.675951 96.626366,26.486649 95.956467,30.056751   C93.250732,44.476562 84.711746,54.807777 72.110809,61.818504   C69.648773,63.188293 66.482300,63.291943 63.199066,63.964756   C64.257362,61.736935 65.757324,59.523937 67.890152,57.073719   C80.149040,52.425171 86.800270,43.675907 89.907242,31.985348   C90.257019,30.669279 89.443268,29.043985 89.290909,27.229710   C89.732796,26.267157 90.052849,25.636986 90.622383,24.901131   C91.259987,24.215809 91.648117,23.636171 92.036240,23.056532   C92.447845,21.906193 92.859444,20.755856 93.173454,19.330009  z"
   id="path59" />
<path
   fill="#C6E58D"
   opacity="1.000000"
   stroke="none"
   d=" M90.372902,25.006815   C90.052849,25.636986 89.732796,26.267157 89.049271,27.410770   C85.838120,31.636446 82.990448,35.348682 79.909111,38.898491   C79.416245,38.459347 79.157036,38.182632 78.897827,37.905918   C78.897827,37.905918 78.952316,37.448502 78.964500,37.218422   C81.006142,34.256317 83.035599,31.524294 85.213112,28.479967   C86.691650,26.820133 88.022141,25.472603 89.764870,24.314760   C90.242371,24.671902 90.307632,24.839357 90.372902,25.006815  z"
   id="path60" />
<path
   fill="#8DCD1C"
   opacity="1.000000"
   stroke="none"
   d=" M90.622383,24.901131   C90.307632,24.839357 90.242371,24.671902 90.080254,24.252718   C90.474831,23.710329 90.966263,23.419668 91.746964,23.092770   C91.648117,23.636171 91.259987,24.215809 90.622383,24.901131  z"
   id="path61" />
<path
   fill="#D7EABC"
   opacity="1.000000"
   stroke="none"
   d=" M16.734135,67.677719   C16.549969,68.960381 16.029354,70.297737 15.057334,71.689194   C14.380246,71.484360 14.154563,71.225426 13.928881,70.966492   C13.928882,70.966492 14.020919,70.551903 14.049580,70.341614   C14.405779,69.743027 14.733317,69.354736 15.164644,68.732971   C15.644850,68.243805 16.021267,67.988113 16.734135,67.677719  z"
   id="path62" />
<path
   fill="#7EBF32"
   opacity="1.000000"
   stroke="none"
   d=" M20.764677,65.938522   C21.027246,66.066986 21.025434,66.253128 21.013668,66.718292   C20.731077,66.861969 20.489670,66.684227 20.127926,66.297958   C20.151009,66.086624 20.325651,66.041412 20.764677,65.938522  z"
   id="path63" />
<path
   fill="#C1E479"
   opacity="1.000000"
   stroke="none"
   d=" M78.641129,38.109436   C79.157036,38.182632 79.416245,38.459347 79.796173,39.223656   C76.299919,44.487717 72.682938,49.264194 69.065964,54.040672   C68.803452,53.818146 68.540939,53.595615 68.118027,53.169136   C67.998840,52.578804 68.040062,52.192425 68.100143,51.518875   C69.732513,49.131897 71.346008,47.032093 73.041199,44.621967   C74.876732,42.312080 76.630585,40.312515 78.641129,38.109436  z"
   id="path64" />
<path
   fill="#AED180"
   opacity="1.000000"
   stroke="none"
   d=" M12.907265,75.941307   C12.595158,76.033363 12.342586,76.210373 12.039534,76.679604   C11.579199,76.852005 11.297349,76.694511 10.934147,76.214561   C10.908051,75.754990 11.043095,75.501251 11.734837,75.120483   C12.544993,75.005066 12.809764,75.022690 13.045492,75.267914   C13.016451,75.495522 12.907265,75.941307 12.907265,75.941307  z"
   id="path65" />
<path
   fill="#BEDC96"
   opacity="1.000000"
   stroke="none"
   d=" M13.074533,75.040306   C12.809764,75.022690 12.544993,75.005066 11.881185,74.962273   C11.825506,74.171219 12.168866,73.405350 12.615847,72.347229   C12.976178,71.798141 13.232888,71.541298 13.709238,71.125473   C14.154563,71.225426 14.380246,71.484360 14.820717,71.887115   C14.650185,72.779709 14.264865,73.528481 13.625423,74.609787   C13.371301,74.942322 13.074533,75.040306 13.074533,75.040306  z"
   id="path66" />
<path
   fill="#78B74B"
   opacity="1.000000"
   stroke="none"
   d=" M90.518166,66.892578   C90.883095,67.025986 90.932106,67.278900 91.048637,67.915344   C84.469864,74.154312 77.844818,80.034164 71.163589,85.849464   C69.301651,87.470093 67.273582,88.899841 65.124367,90.688675   C64.518791,90.995308 64.110565,91.030426 63.397423,91.086792   C62.592457,90.782990 62.092407,90.457939 61.433968,89.871124   C61.478416,89.360931 61.698971,89.129402 61.937252,88.914764   C64.811028,86.795975 67.684799,84.677177 70.793335,82.333786   C74.930305,78.941994 78.832527,75.774811 82.924637,72.328804   C85.477097,70.370682 87.839676,68.691391 90.518166,66.892578  z"
   id="path67" />
<path
   fill="#6CAC44"
   opacity="1.000000"
   stroke="none"
   d=" M43.620789,113.856194   C45.314098,111.048004 47.422729,108.263405 50.070335,105.096466   C53.401882,103.135544 56.194454,101.556961 58.987022,99.978378   C62.724007,99.011475 66.460991,98.044571 70.589737,97.061523   C69.809662,98.787399 68.974396,100.959129 67.402466,102.190285   C62.812134,105.785484 57.927765,109.005249 53.089302,112.716400   C50.025337,113.333694 47.030720,113.606735 43.620789,113.856194  z"
   id="path68" />
<path
   fill="#589C21"
   opacity="1.000000"
   stroke="none"
   d=" M58.764008,99.749054   C56.194454,101.556961 53.401882,103.135544 50.298134,104.856827   C49.404667,104.465256 48.822384,103.930977 48.089096,103.133171   C50.326763,101.250275 52.715435,99.630898 55.421986,97.915176   C56.673573,98.385796 57.607281,98.952759 58.764008,99.749054  z"
   id="path69" />
<path
   fill="#63A61D"
   opacity="1.000000"
   stroke="none"
   d=" M61.595428,88.704895   C61.698971,89.129402 61.478416,89.360931 61.139999,89.807510   C58.208824,91.575874 55.413231,93.146072 52.288391,94.822372   C48.731014,93.942604 45.551292,92.738129 42.265945,92.010666   C31.140232,89.547134 21.448910,84.523567 13.157520,76.171753   C12.907265,75.941307 13.016451,75.495522 13.045492,75.267914   C13.074533,75.040306 13.371301,74.942322 13.524082,74.910690   C15.596641,74.877914 18.137442,74.072250 19.339865,75.000420   C31.014271,84.012108 44.133503,88.302307 58.822460,88.037415   C59.629826,88.022858 60.443089,88.334969 61.595428,88.704895  z"
   id="path70" />
<path
   fill="#7EBF32"
   opacity="1.000000"
   stroke="none"
   d=" M22.017090,67.504257   C22.527321,67.637177 23.145559,68.044014 23.914343,68.690742   C23.418291,68.546478 22.771692,68.162323 22.017090,67.504257  z"
   id="path71" />
<path
   fill="#8DCD1C"
   opacity="1.000000"
   stroke="none"
   d=" M68.943909,54.330727   C72.682938,49.264194 76.299919,44.487717 80.029831,39.386078   C82.990448,35.348682 85.838120,31.636446 88.927429,27.743149   C89.443268,29.043985 90.257019,30.669279 89.907242,31.985348   C86.800270,43.675907 80.149040,52.425171 68.147568,56.870285   C68.122040,56.142975 68.471939,55.381874 68.943909,54.330727  z"
   id="path72" />
</svg>
